<?xml version="1.0" standalone="no"?><!DOCTYPE svg PUBLIC "-//W3C//DTD SVG 1.1//EN" "http://www.w3.org/Graphics/SVG/1.1/DTD/svg11.dtd"><svg t="1713756609517" class="icon" viewBox="0 0 2296 1024" version="1.1" xmlns="http://www.w3.org/2000/svg" p-id="2064" xmlns:xlink="http://www.w3.org/1999/xlink" width="448.4375" height="200"><path d="M1059.604527 0a366.337147 366.337147 0 0 0-12.389735 139.647007l-35.90923 11.339757-161.696534-11.129762 55.228816-123.897344c2.582945-5.900874 8.798811-9.827789 15.959658-10.079784l138.807025-5.879874z" fill="#4895EF" p-id="2065"></path><path d="M1059.604527 0l76.858352 7.559838c6.005871 0.503989 11.423755 5.186889 13.859703 11.969743l44.729041 124.527331-130.407204 2.099955a5.984872 5.984872 0 0 0-5.879874 4.619901l-1.049978 4.619901-10.499775-15.749662a366.337147 366.337147 0 0 1 12.389735-139.647007z" fill="#DC1D4A" p-id="2066"></path><path d="M849.609028 139.857002l161.696534 11.129762-1.259973 675.135528a10.394777 10.394777 0 0 1-10.289779 10.289779l-290.63377 6.08987c-40.319136-176.186223-121.797389-362.242235-321.713104-397.101488-7.286844-1.175975-13.187717-5.312886-15.539667-10.919766-5.459883-12.872724-4.052913-25.682449 4.19991-38.429177 73.645421-69.9915 132.087169-123.120361 175.346241-159.386583 83.872202-70.138497 183.263072-102.414805 298.193608-96.807925z m-211.675462 315.623235l309.113374 2.519946a13.04072 13.04072 0 0 0 12.809725-10.709771c14.699685-67.051563 15.686664-135.174102 2.939937-204.32562a14.069698 14.069698 0 0 0-12.59973-11.339757c-165.686448-14.069698-296.933635 6.929851-334.312834 195.085818-1.364971 7.01385 0.293994 14.279694 4.556903 19.823575 4.241909 5.564881 10.667771 8.819811 17.492625 8.945809z" fill="#E2F0FA" p-id="2067"></path><path d="M1047.214792 139.647007l10.499775 15.749662 1.259973 670.935618c0 5.921873 4.703899 10.70977 10.499775 10.709771h554.178121a11.234759 11.234759 0 0 0 11.129762-10.499775c4.619901-69.865502 35.069248-125.577308 91.348041-167.156417 127.257272-46.765998 220.012284-11.759748 278.244036 104.997749 9.80679 37.106205 11.486754 76.228366 5.039892 117.387484-89.038091 179.966142-250.944621 178.706169-363.082217 22.469518a20.474561 20.474561 0 0 0-16.589644-8.39982c-166.736426-0.419991-333.262856-0.419991-499.579292 0-23.3095 0.209995-75.808375 12.179739-111.297614 6.299865-115.497524-18.899595-256.824495-7.559838-375.471951-8.819811a18.164611 18.164611 0 0 0-15.749663 9.029807c-29.672364 51.658893-71.818461 87.925115-126.41729 108.777668-276.144081 24.989464-314.363261-338.932735-79.79829-368.332105 119.277443-15.119676 206.635571 60.898695 215.035391 179.966143 0.503989 6.740856 4.619901 12.431734 10.499775 14.489689 21.839532 7.979829 42.566088 9.722792 62.158668 5.249888l290.63377-6.08987a10.394777 10.394777 0 0 0 10.289779-10.289779l1.259973-675.135528 35.90923-11.339757z m-681.645388 618.646739c-40.172139 63.145646-31.415327 117.954472 26.249437 164.426475 32.213309 22.112526 65.455597 23.876488 99.747862 5.249887 116.547502-74.128411 53.968843-229.315085-78.748312-204.745611-26.459433-2.246952-42.209095 9.449797-47.248987 35.069249z m1564.886456 70.138496a106.257722 106.257722 0 1 0-212.515445 0 106.257722 106.257722 0 0 0 212.515445 0z" fill="#4F687D" p-id="2068"></path><path d="M1195.051623 144.056912c103.611779-12.179739 192.292878 16.652643 266.064297 86.518145a2015.452798 2015.452798 0 0 0 181.436111 152.666728l73.70842 71.608465c5.564881 5.417884 8.819811 11.444755 8.819811 16.379649l1.049977 188.155967c-56.278794 41.579109-86.728141 97.290915-91.348041 167.156417a11.234759 11.234759 0 0 1-11.129762 10.499775h-554.178121a10.604773 10.604773 0 0 1-10.499775-10.709771l-1.259973-670.935618 1.049978-4.619901a5.984872 5.984872 0 0 1 5.879874-4.619901l130.407204-2.099955z m-51.448897 311.423325c53.758848 2.519946 382.401803 20.789554 395.421524-16.589645 1.952958-5.753877 0.251995-12.557731-4.409905-17.849617-122.637371-139.647007-187.945971-228.685098-397.521479-183.956057a12.914723 12.914723 0 0 0-10.079784 12.809725l-0.209996 188.155967a17.429626 17.429626 0 0 0 16.79964 17.429627z m236.874923 119.907429l-33.59928-57.328771c-11.759748-20.012571-22.112526-21.48254-31.079334-4.409905l-34.859253 66.358577c-2.729941 4.976893-8.987807 8.462819-16.589644 9.239802-87.904116 9.386799-97.857902 39.416155-29.819361 90.088069a19.319586 19.319586 0 0 1 7.769834 16.589644l-4.619901 73.078434c-0.503989 6.929851 2.414948 13.103719 7.349842 15.539667l9.029807 3.989914c5.14489 2.456947 12.221738 1.154975 18.269608-3.359928 42.293093-30.80634 83.662207-30.869338 124.10734-0.209995 5.816875 4.535903 12.746727 5.984872 18.059612 3.779919 21.419541-8.819811 18.899595-29.39937 13.019721-50.818911-26.669428-96.807925 141.536966-114.027556-32.129311-151.196759a23.561495 23.561495 0 0 1-14.90968-11.339757z" fill="#E2F0FA" p-id="2069"></path><path d="M1642.552031 383.241785c27.299415 10.079784 50.965908 24.569473 70.978479 43.469068 5.165889 4.892895 11.465754 7.853832 17.849617 8.39982 104.724755 10.226781 209.575508 17.576623 314.573257 22.049528 235.404954 10.289779 193.195859 121.167403 198.445746 302.183522l-240.024855 5.039892c-58.231752-116.757497-150.986764-151.763747-278.244036-104.997749l-1.049977-188.155967c0-4.934894-3.25493-10.961765-8.819811-16.379649l-73.70842-71.608465z m575.387666 199.705719c-132.087169-55.858803-219.025305 145.946872-11.339757 149.936786 5.921873 0.104998 11.612751-2.057956 15.812661-6.005871 4.19991-3.968915 6.50986-9.365799 6.446862-14.993679l-0.839982-114.027555a16.169653 16.169653 0 0 0-10.079784-14.909681zM376.069179 396.05151c-8.252823 12.746727-9.659793 25.556452-4.19991 38.429177 2.35195 5.60688 8.252823 9.743791 15.539667 10.919766 199.915715 34.859253 281.393968 220.915265 321.713104 397.101488-19.59258 4.472904-40.319136 2.729941-62.158668-5.249888a16.358649 16.358649 0 0 1-10.499775-14.489689c-8.39982-119.067448-95.757947-195.085818-215.035391-179.966143-234.564972 29.39937-196.345791 393.321569 79.79829 368.332105-113.397569 42.419091-199.915715-25.19946-245.904729-126.837281l-6.299865-104.577759a9.701792 9.701792 0 0 0-3.317929-6.719856 8.819811 8.819811 0 0 0-6.97185-2.099955c-54.451833 7.979829-109.113661 6.99285-164.006485-2.939937-7.349842-1.322972-13.292715-5.396884-15.959658-10.919765-5.312886-10.646772-3.569923-20.096569 5.249888-28.349393 4.283908-3.863917 11.150761-5.774876 18.899595-5.249887 98.004899 6.719856 129.021234-33.956272 93.028006-122.007385a29.462368 29.462368 0 0 0-13.439712-15.119676 157.454625 157.454625 0 0 0-80.428276-17.849617 9.638793 9.638793 0 0 1-7.223845-2.729942 8.273823 8.273823 0 0 1-2.435948-6.929851c3.779919-31.919316 18.899595-60.751698 45.359027-86.518146l258.294464-76.228366z" fill="#4895EF" p-id="2070"></path><path d="M117.774715 472.279876c-26.459433 25.766448-41.579109 54.59883-45.359027 86.518146-0.314993 2.519946 0.566988 5.039892 2.435948 6.929851a9.638793 9.638793 0 0 0 7.223845 2.729942 157.454625 157.454625 0 0 1 80.428276 17.849617c5.984872 3.128933 10.75177 8.483818 13.439712 15.119676 35.993228 88.051113 4.976893 128.727241-93.028006 122.007385-7.748834-0.524989-14.615687 1.38597-18.899595 5.249887-8.819811 8.252823-10.562774 17.702621-5.249888 28.349393 2.666943 5.522882 8.609815 9.596794 15.959658 10.919765 54.892823 9.932787 109.554652 10.919766 164.006485 2.939937a8.819811 8.819811 0 0 1 6.97185 2.099955c1.952958 1.658964 3.149932 4.094912 3.317929 6.719856l6.299865 104.577759c-78.538316 14.069698-311.63332 39.269158-242.754796-108.987664 46.619001-99.747862-10.70977-257.03449 105.207744-303.023505zM2244.39913 759.343723c75.472382 59.218731 68.332535 102.750797-21.419541 130.6172-35.972229 11.19276-107.160703 8.462819-213.565422-8.189824 6.446862-41.159118 4.766898-80.281279-5.039892-117.387484l240.024855-5.039892z" fill="#E2F0FA" p-id="2071"></path><path d="M637.933566 455.480237a22.532517 22.532517 0 0 1-17.492625-8.945809 24.779469 24.779469 0 0 1-4.556903-19.823575c37.379199-188.155967 168.626385-209.155517 334.312834-195.085818a14.069698 14.069698 0 0 1 12.59973 11.339757c12.746727 69.151518 11.759748 137.274057-2.939937 204.32562a13.04072 13.04072 0 0 1-12.809725 10.709771l-309.113374-2.519946zM1143.602726 455.480237a17.429626 17.429626 0 0 1-16.79964-17.429627l0.209996-188.155967a12.914723 12.914723 0 0 1 10.079784-12.809725c209.575508-44.729041 274.884108 44.30905 397.521479 183.956057 4.6619 5.291887 6.362864 12.095741 4.409905 17.849617-13.019721 37.379199-341.662676 19.10959-395.421524 16.589645z" fill="#4F687D" p-id="2072"></path><path d="M1395.387329 586.727423c173.666277 37.169203 5.459883 54.388834 32.129311 151.196759 5.879874 21.419541 8.39982 41.9991-13.019721 50.818911-5.312886 2.204953-12.242738 0.755984-18.059612-3.779919-40.445133-30.659343-81.814246-30.596344-124.10734 0.209995-6.04787 4.514903-13.124719 5.816875-18.269608 3.359928l-9.029807-3.989914c-4.934894-2.435948-7.853832-8.609815-7.349842-15.539667l4.619901-73.078434a19.319586 19.319586 0 0 0-7.769834-16.589644c-68.038542-50.671914-58.084755-80.70127 29.819361-90.088069 7.601837-0.776983 13.859703-4.262909 16.589644-9.239802l34.859253-66.358577c8.966808-17.072634 19.319586-15.602666 31.079334 4.409905l33.59928 57.328771c3.485925 5.900874 8.903809 10.016785 14.90968 11.339757z" fill="#4895EF" p-id="2073"></path><path d="M2206.59994 732.88429c-207.685548-3.989914-120.747412-205.795589 11.339757-149.936786a16.169653 16.169653 0 0 1 10.079784 14.909681l0.839982 114.027555a20.285565 20.285565 0 0 1-6.446862 14.993679c-4.19991 3.947915-9.890788 6.110869-15.812661 6.005871z" fill="#E2F0FA" p-id="2074"></path><path d="M412.818391 723.224497c-10.625772 18.479604-26.375435 30.176353-47.248987 35.069249 5.039892-25.619451 20.789554-37.3162 47.248987-35.069249z" fill="#869AA9" p-id="2075"></path><path d="M412.818391 723.224497c132.717155-24.569473 195.295814 130.6172 78.748312 204.745611l-99.747862-5.249887c-57.664764-46.472004-66.421576-101.280829-26.249437-164.426475 20.873553-4.892895 36.623215-16.589644 47.248987-35.069249z" fill="#E2F0FA" p-id="2076"></path><path d="M1824.198137 828.432242m-106.257722 0a106.257722 106.257722 0 1 0 212.515445 0 106.257722 106.257722 0 1 0-212.515445 0Z" fill="#E2F0FA" p-id="2077"></path><path d="M391.818841 922.720221l99.747862 5.249887c-34.292265 18.626601-67.534552 16.862639-99.747862-5.249887z" fill="#A5BA8B" p-id="2078"></path></svg>